HIERARCHY
ROOT Hips
{
	OFFSET 0.000000 0.000000 0.000000
	CHANNELS 6 Xposition Yposition Zposition Zrotation Yrotation Xrotation 
	JOINT LHipJoint
	{
		OFFSET 0.000000 0.000000 0.000000
		CHANNELS 3 Zrotation Yrotation Xrotation
		JOINT LeftUpLeg
		{
			OFFSET 1.363060 -1.794630 0.839290
			CHANNELS 3 Zrotation Yrotation Xrotation
			JOINT LeftLeg
			{
				OFFSET 2.448110 -6.726130 0.000000
				CHANNELS 3 Zrotation Yrotation Xrotation
				JOINT LeftFoot
				{
					OFFSET 2.562200 -7.039590 0.000000
					CHANNELS 3 Zrotation Yrotation Xrotation
					JOINT LeftToeBase
					{
						OFFSET 0.157640 -0.433110 2.322550
						CHANNELS 3 Zrotation Yrotation Xrotation
						End Site
						{
							OFFSET 0.000000 0.000000 0.000000
						}
					}
				}
			}
		}
	}
	JOINT RHipJoint
	{
		OFFSET 0.000000 0.000000 0.000000
		CHANNELS 3 Zrotation Yrotation Xrotation
		JOINT RightUpLeg
		{
			OFFSET -1.305520 -1.794630 0.839290
			CHANNELS 3 Zrotation Yrotation Xrotation
			JOINT RightLeg
			{
				OFFSET -2.542530 -6.985550 0.000000
				CHANNELS 3 Zrotation Yrotation Xrotation
				JOINT RightFoot
				{
					OFFSET -2.568260 -7.056230 0.000000
					CHANNELS 3 Zrotation Yrotation Xrotation
					JOINT RightToeBase
					{
						OFFSET -0.164730 -0.452590 2.363150
						CHANNELS 3 Zrotation Yrotation Xrotation
						End Site
						{
							OFFSET 0.000000 0.000000 0.000000
						}
					}
				}
			}
		}
	}
	JOINT LowerBack
	{
		OFFSET 0.000000 0.000000 0.000000
		CHANNELS 3 Zrotation Yrotation Xrotation
		JOINT Spine
		{
			OFFSET 0.028270 2.035590 -0.193380
			CHANNELS 3 Zrotation Yrotation Xrotation
			JOINT Spine1
			{
				OFFSET 0.056720 2.048850 -0.042750
				CHANNELS 3 Zrotation Yrotation Xrotation
				JOINT Neck
				{
					OFFSET 0.000000 0.000000 0.000000
					CHANNELS 3 Zrotation Yrotation Xrotation
					JOINT Neck1
					{
						OFFSET -0.054170 1.746240 0.172020
						CHANNELS 3 Zrotation Yrotation Xrotation
						JOINT Head
						{
							OFFSET 0.104070 1.761360 -0.123970
							CHANNELS 3 Zrotation Yrotation Xrotation
							End Site
							{
								OFFSET 0.000000 0.000000 0.000000
							}
						}
					}
				}
				JOINT LeftShoulder
				{
					OFFSET 0.000000 0.000000 0.000000
					CHANNELS 3 Zrotation Yrotation Xrotation
					JOINT LeftArm
					{
						OFFSET 3.362410 1.200890 -0.311210
						CHANNELS 3 Zrotation Yrotation Xrotation
						JOINT LeftForeArm
						{
							OFFSET 4.983000 -0.000000 -0.000000
							CHANNELS 3 Zrotation Yrotation Xrotation
							JOINT LeftHand
							{
								OFFSET 3.483560 -0.000000 -0.000000
								CHANNELS 3 Zrotation Yrotation Xrotation
								JOINT LeftFingerBase
								{
									OFFSET 0.000000 0.000000 0.000000
									CHANNELS 3 Zrotation Yrotation Xrotation
									JOINT LeftHandIndex1
									{
										OFFSET 0.715260 -0.000000 -0.000000
										CHANNELS 3 Zrotation Yrotation Xrotation
										End Site
										{
											OFFSET 0.000000 0.000000 0.000000
										}
									}
								}
								JOINT LThumb
								{
									OFFSET 0.000000 0.000000 0.000000
									CHANNELS 3 Zrotation Yrotation Xrotation
									End Site
									{
										OFFSET 0.000000 0.000000 0.000000
									}
								}
							}
						}
					}
				}
				JOINT RightShoulder
				{
					OFFSET 0.000000 0.000000 0.000000
					CHANNELS 3 Zrotation Yrotation Xrotation
					JOINT RightArm
					{
						OFFSET -3.136600 1.374050 -0.404650
						CHANNELS 3 Zrotation Yrotation Xrotation
						JOINT RightForeArm
						{
							OFFSET -5.241900 -0.000000 -0.000000
							CHANNELS 3 Zrotation Yrotation Xrotation
							JOINT RightHand
							{
								OFFSET -3.444170 -0.000000 -0.000000
								CHANNELS 3 Zrotation Yrotation Xrotation
								JOINT RightFingerBase
								{
									OFFSET 0.000000 0.000000 0.000000
									CHANNELS 3 Zrotation Yrotation Xrotation
									JOINT RightHandIndex1
									{
										OFFSET -0.622530 -0.000000 -0.000000
										CHANNELS 3 Zrotation Yrotation Xrotation
										End Site
										{
											OFFSET 0.000000 0.000000 0.000000
										}
									}
								}
								JOINT RThumb
								{
									OFFSET 0.000000 0.000000 0.000000
									CHANNELS 3 Zrotation Yrotation Xrotation
									End Site
									{
										OFFSET 0.000000 0.000000 0.000000
									}
								}
							}
						}
					}
				}
			}
		}
	}
}
MOTION
Frames: 6
Frame Time: 0.008333
3.071394 16.463356 0.169983 31.546268 83.487230 37.076691 -8.579617 0.596735 2.916510 -17.704791 -1.069665 -38.335957 -1.773051 0.964023 33.933472 1.432906 7.360664 -6.872329 0.251100 -0.000000 -11.938100 12.494917 -5.197150 -0.468379 -2.171717 -13.008532 -0.562320 -0.401870 -3.670428 47.359654 -0.698666 10.408846 26.183700 6.110600 0.000000 -78.865600 -11.444499 1.859412 -4.781858 -3.060606 2.547341 -4.131280 -5.140901 2.413476 -0.274460 7.074637 -1.312401 -7.827673 -2.088992 -0.161925 -0.075300 0.000000 0.000000 0.000000 -5.808738 22.277693 2.328768 -54.637683 25.923144 -13.974174 -5.048319 -4.639349 -0.007186 4.447856 4.276010 0.173208 -0.142222 -0.051721 -0.000000 0.000000 0.000000 0.000000 0.000000 0.000000 0.000000 6.105243 6.586352 -0.205564 48.248481 45.855348 24.961964 0.678639 65.960175 0.006348 1.893243 7.113688 0.130445 -0.073652 -0.445280 0.000000 0.000000 0.000000 0.000000 0.000000 0.000000 0.000000 
3.218343 16.410558 0.167340 33.315908 83.272596 38.627652 -8.450709 0.629968 2.717717 -18.301938 -0.980726 -38.402545 -1.706104 1.097109 35.942288 1.507132 7.579015 -7.875492 0.081700 -0.000000 -11.120600 12.775915 -5.009827 -0.631782 -3.001508 -13.375501 -2.096558 -0.602956 -3.846381 50.952582 -0.901128 8.924736 26.661034 5.466600 0.000000 -75.351700 -11.585039 1.783791 -4.359458 -3.081702 2.482999 -4.084830 -5.171888 2.357584 -0.416116 7.082241 -1.117769 -7.806679 -2.176021 -0.168328 -0.079504 0.000000 0.000000 0.000000 -6.341054 21.712612 2.416568 -55.049562 24.903660 -12.909728 -5.008430 -4.794348 -0.005609 4.551856 3.962379 0.163931 -0.132545 -0.051601 -0.000000 0.000000 0.000000 0.000000 0.000000 0.000000 0.000000 6.370931 6.909779 -0.120156 49.543658 44.912675 25.428034 0.727263 65.605788 0.006887 1.841210 7.110612 0.126411 -0.066246 -0.441734 0.000000 0.000000 0.000000 0.000000 0.000000 0.000000 0.000000 
3.360426 16.356651 0.162647 34.805343 83.029866 39.870438 -8.338121 0.663094 2.504207 -18.879908 -0.846377 -38.351813 -1.655304 1.219338 37.822774 1.587772 7.793065 -9.050301 -0.125700 0.000000 -10.410000 13.023696 -4.802740 -0.811634 -3.762650 -13.673792 -3.621519 -0.811409 -4.040588 54.539104 -1.105968 6.936201 26.661563 4.472500 0.000000 -71.830200 -11.691943 1.719991 -3.898120 -3.096320 2.427204 -4.032815 -5.207675 2.309981 -0.564879 7.088830 -0.913870 -7.776073 -2.272230 -0.175500 -0.081888 0.000000 0.000000 0.000000 -6.887077 21.118795 2.506698 -55.468751 23.771696 -11.771292 -4.958245 -4.925916 -0.003993 4.736748 3.632226 0.156056 -0.121985 -0.051207 -0.000000 0.000000 0.000000 0.000000 0.000000 0.000000 0.000000 6.675492 7.243865 -0.032589 50.796293 43.929427 25.854305 0.773578 65.158683 0.007142 1.751251 7.136284 0.120375 -0.058581 -0.438240 -0.000000 0.000000 0.000000 0.000000 0.000000 0.000000 0.000000 
3.498355 16.302792 0.156099 36.033376 82.765114 40.829491 -8.242371 0.697228 2.279503 -19.435205 -0.666957 -38.188011 -1.620065 1.331044 39.558071 1.673103 8.002016 -10.348540 -0.364600 0.000001 -9.829700 13.241074 -4.582994 -1.000295 -4.450760 -13.897759 -5.138351 -1.031468 -4.252668 58.079021 -1.312105 4.536443 26.146951 3.212600 -0.000000 -68.359400 -11.768551 1.666537 -3.412324 -3.106052 2.378876 -3.978679 -5.251630 2.269178 -0.721945 7.105560 -0.691932 -7.728189 -2.379073 -0.183665 -0.080323 0.000000 0.000000 0.000000 -7.436506 20.485277 2.597523 -55.889029 22.546406 -10.571083 -4.899352 -5.032672 -0.002437 4.990863 3.306797 0.149383 -0.110612 -0.050392 -0.000000 0.000000 0.000000 0.000000 0.000000 0.000000 0.000000 7.036290 7.593474 0.058988 52.003403 42.888253 26.233137 0.819087 64.616285 0.007166 1.632657 7.202208 0.113035 -0.050865 -0.434893 -0.000000 0.000000 0.000000 0.000000 0.000000 0.000000 0.000000 
3.632890 16.250153 0.148107 37.051260 82.484430 41.564307 -8.159733 0.734063 2.048269 -19.969528 -0.450844 -37.919215 -1.598943 1.432445 41.134457 1.761836 8.208413 -11.716689 -0.626800 0.000000 -9.393400 13.434629 -4.356133 -1.190418 -5.069035 -14.047178 -6.651348 -1.265441 -4.480427 61.532281 -1.516984 1.868315 25.104089 1.815300 -0.000000 -64.921400 -11.823780 1.620519 -2.916435 -3.113755 2.335959 -3.922525 -5.306332 2.233040 -0.875696 7.147703 -0.463972 -7.667849 -2.497323 -0.192797 -0.076285 0.000000 0.000000 0.000000 -7.963545 19.842622 2.686859 -56.306387 21.180921 -9.310395 -4.831610 -5.074025 -0.001011 5.307743 2.994381 0.143509 -0.098487 -0.048866 -0.000000 0.000000 0.000000 0.000000 0.000000 0.000000 0.000000 7.478422 7.940870 0.154358 53.155101 41.806392 26.572008 0.865010 63.963632 0.006975 1.487924 7.323136 0.104490 -0.043198 -0.431744 -0.000000 0.000000 0.000000 0.000000 0.000000 0.000000 0.000000 
3.764647 16.199993 0.138986 37.886887 82.194395 42.110621 -8.089124 0.774382 1.815131 -20.479281 -0.204839 -37.559614 -1.589509 1.524202 42.545984 1.852089 8.411965 -13.102321 -0.903300 0.000000 -9.099700 13.607308 -4.127176 -1.374654 -5.613290 -14.119576 -8.164280 -1.513302 -4.719567 64.857384 -1.716150 -0.900506 23.551128 0.427600 0.000000 -61.452800 -11.859409 1.580573 -2.424610 -3.120293 2.297433 -3.868728 -5.374081 2.200052 -1.032276 7.220217 -0.216328 -7.584220 -2.627170 -0.203059 -0.066624 0.000000 0.000000 0.000000 -8.465024 19.165727 2.773506 -56.715092 19.719391 -7.998728 -4.758324 -5.072007 0.000201 5.662819 2.709549 0.138235 -0.085878 -0.046559 -0.000000 0.000000 0.000000 0.000000 0.000000 0.000000 0.000000 8.005147 8.295406 0.254232 54.262510 40.651331 26.849135 0.912806 63.195398 0.006691 1.336990 7.497911 0.095943 -0.035935 -0.428650 -0.000000 0.000000 0.000000 0.000000 0.000000 0.000000 0.000000 
